<?xml version="1.0" encoding="UTF-8"?>
<svg id="Layer_2" data-name="Layer 2" xmlns="http://www.w3.org/2000/svg" viewBox="0 0 1152.53 1054.9">
  <defs>
    <style>
      .cls-1, .cls-2 {
        fill: #fff;
      }

      .cls-3 {
        fill: #1ba9b5;
      }

      .cls-3, .cls-4, .cls-2, .cls-5 {
        fill-rule: evenodd;
      }

      .cls-4 {
        fill: #6eab36;
      }

      .cls-5 {
        fill: #007e86;
      }
    </style>
  </defs>
  <g id="Layer_1-2" data-name="Layer 1">
    <g>
      <path class="cls-2" d="M567.8,1054.9c-68.9-84.23-218.15-335.28-241.67-486.86C286.34,311.67,571.99,4.59,576.25,0c4.29,4.59,289.94,311.67,250.15,568.04-24.88,160.44-171.46,403.88-241.67,486.86h-16.94Z"/>
      <path class="cls-5" d="M515.02,882.19c-60.7-74.21-138.42-191.59-159.14-325.14-35.05-225.87,216.61-496.43,220.37-500.47,3.78,4.04,255.45,274.6,220.4,500.47-21.92,141.36-107.73,264.59-169.59,337.7l-54.01-456.63-58.03,444.07Z"/>
      <path class="cls-2" d="M704.83,839.69c-17.75,18.81-35.5,37.62-53.27,56.41-11.68,12.36-23.34,24.71-35.05,37.04-3.31,3.49-6.62,6.98-9.95,10.45-.95,.98-1.89,1.97-2.84,2.95-.37,.38-.76,.77-1.13,1.15-.29,.28-.5,.49-1.13,1.08-.18,.16-.37,.32-.55,.49-7.14,6.39-15.94,9.35-24.65,9.31-8.69,.04-17.49-2.92-24.63-9.31-.18-.16-.37-.32-.55-.49-.63-.59-.84-.8-1.13-1.08-.39-.38-.76-.77-1.13-1.15-.97-.98-1.89-1.96-2.84-2.95-3.34-3.47-6.64-6.96-9.95-10.45-11.71-12.33-23.39-24.68-35.08-37.04-17.75-18.79-35.5-37.6-53.25-56.41,26.18,46.91,52.36,93.82,78.53,140.73l41.56,74.48-82.81-20.42c-127.5-31.45-259.44-89.63-352.88-183.95-55.11-55.63-87.33-130.62-106.15-205.61C6.31,566.79-.52,483.3,.03,402.85c.24-38.37,1.79-79.46,6.59-117.63l4.94-39.32,38.91,7.55c37.73,7.33,77.32,18.72,113.85,30.42,76.59,24.58,153.78,57.12,221.89,100.15,65.38,41.29,126.56,95.3,162.24,165.01,10.71,20.95,19.93,42.61,27.8,64.77,7.9-22.16,17.12-43.82,27.83-64.77,35.66-69.71,96.86-123.72,162.24-165.01,68.08-43.03,145.3-75.57,221.89-100.15,36.5-11.7,76.12-23.1,113.85-30.42l38.91-7.55,4.94,39.32c4.78,38.17,6.33,79.25,6.59,117.63,.55,80.45-6.28,163.94-25.92,242.06-18.85,74.99-51.07,149.98-106.18,205.61-93.42,94.32-225.36,152.5-352.86,183.95l-82.81,20.42,41.56-74.48c26.18-46.91,52.35-93.83,78.53-140.73"/>
      <path class="cls-3" d="M269.79,596.98c74.7,133.84,149.37,267.68,224.07,401.51-92.97-22.93-234.76-72.42-335.42-174.05C-2.41,662.06,42.7,295.33,43.41,289.84c5.43,1.06,367.93,72.58,472.04,276.08,38.2,74.67,54.95,157.17,60.81,231.9,5.88-74.73,22.63-157.23,60.84-231.9,104.11-203.5,466.6-275.02,472.04-276.08,.68,5.49,45.82,372.22-115.06,534.6-100.67,101.63-242.42,151.12-335.42,174.05,74.7-133.84,149.4-267.68,224.1-401.51-26.99,28.6-306.15,324.93-306.49,324.59-.31,.35-279.47-295.99-306.46-324.59"/>
      <path class="cls-4" d="M269.79,596.98c74.7,133.84,149.37,267.68,224.07,401.51-92.97-22.93-234.76-72.42-335.42-174.05C-2.41,662.06,42.7,295.33,43.41,289.84c5.43,1.06,367.93,72.58,472.04,276.08,38.18,74.65,54.93,157.12,60.81,231.83v123.82c-.52,.11-279.47-295.99-306.46-324.59"/>
      <circle class="cls-1" cx="578.44" cy="779.31" r="74.52"/>
    </g>
  </g>
</svg>